HIERARCHY
ROOT Hips
{
	OFFSET 0.000000 0.000000 0.000000 
	CHANNELS 6 Xposition Yposition Zposition Zrotation Yrotation Xrotation
	JOINT LeftUpLeg
	{
		OFFSET 1.363060 -1.794630 0.839290 
		CHANNELS 3 Zrotation Yrotation Xrotation
		JOINT LeftLeg
		{
			OFFSET 2.448110 -6.726130 0.000000 
			CHANNELS 3 Zrotation Yrotation Xrotation
			JOINT LeftFoot
			{
				OFFSET 2.562200 -7.039590 0.000000 
				CHANNELS 3 Zrotation Yrotation Xrotation
				JOINT LeftToeBase
				{
					OFFSET 0.157640 -0.433110 2.322550 
					CHANNELS 3 Zrotation Yrotation Xrotation
					End Site
					{
						OFFSET 0.000000 0.000000 0.000000 
					}
				}
			}
		}
	}
	JOINT RightUpLeg
	{
		OFFSET -1.305520 -1.794630 0.839290 
		CHANNELS 3 Zrotation Yrotation Xrotation
		JOINT RightLeg
		{
			OFFSET -2.542530 -6.985550 0.000000 
			CHANNELS 3 Zrotation Yrotation Xrotation
			JOINT RightFoot
			{
				OFFSET -2.568260 -7.056230 0.000000 
				CHANNELS 3 Zrotation Yrotation Xrotation
				JOINT RightToeBase
				{
					OFFSET -0.164730 -0.452590 2.363150 
					CHANNELS 3 Zrotation Yrotation Xrotation
					End Site
					{
						OFFSET 0.000000 0.000000 0.000000 
					}
				}
			}
		}
	}
	JOINT Spine
	{
		OFFSET 0.028270 2.035590 -0.193380 
		CHANNELS 3 Zrotation Yrotation Xrotation
		JOINT Spine1
		{
			OFFSET 0.056720 2.048850 -0.042750 
			CHANNELS 3 Zrotation Yrotation Xrotation
			JOINT Neck1
			{
				OFFSET -0.054170 1.746240 0.172020 
				CHANNELS 3 Zrotation Yrotation Xrotation
				JOINT Head
				{
					OFFSET 0.104070 1.761360 -0.123970 
					CHANNELS 3 Zrotation Yrotation Xrotation
					End Site
					{
						OFFSET 0.000000 0.000000 0.000000 
					}
				}
			}
			JOINT LeftArm
			{
				OFFSET 3.362410 1.200890 -0.311210 
				CHANNELS 3 Zrotation Yrotation Xrotation
				JOINT LeftForeArm
				{
					OFFSET 4.983000 -0.000000 -0.000000 
					CHANNELS 3 Zrotation Yrotation Xrotation
					JOINT LeftHand
					{
						OFFSET 3.483560 -0.000000 -0.000000 
						CHANNELS 3 Zrotation Yrotation Xrotation
						JOINT LeftHandIndex1
						{
							OFFSET 0.715260 -0.000000 -0.000000 
							CHANNELS 3 Zrotation Yrotation Xrotation
							End Site
							{
								OFFSET 0.000000 0.000000 0.000000 
							}
						}
					}
				}
			}
			JOINT RightArm
			{
				OFFSET -3.136600 1.374050 -0.404650 
				CHANNELS 3 Zrotation Yrotation Xrotation
				JOINT RightForeArm
				{
					OFFSET -5.241900 -0.000000 -0.000000 
					CHANNELS 3 Zrotation Yrotation Xrotation
					JOINT RightHand
					{
						OFFSET -3.444170 -0.000000 -0.000000 
						CHANNELS 3 Zrotation Yrotation Xrotation
						JOINT RightHandIndex1
						{
							OFFSET -0.622530 -0.000000 -0.000000 
							CHANNELS 3 Zrotation Yrotation Xrotation
							End Site
							{
								OFFSET 0.000000 0.000000 0.000000 
							}
						}
					}
				}
			}
		}
	}
}
MOTION
Frames: 18
Frame Time: 0.041667
0.966103 17.750773 -31.901216 0.828224 -1.322825 4.914076 -21.457449 -9.587239 -12.604454 1.579005 9.152991 28.284619 0.076790 1.754764 -5.571024 0.004400 0.429800 1.180900 25.924199 10.464413 -11.332877 -2.616672 -9.500459 29.814829 0.733329 -6.205987 -10.238181 -0.147400 -2.474400 6.818700 2.339860 -3.954714 -2.757104 8.086308 -1.256288 -4.016935 4.489778 0.252980 15.565588 4.229800 -0.782700 7.696300 -89.251593 4.382663 19.249594 9.643329 -17.972774 -1.719351 -0.884794 -3.155037 14.158331 -7.125000 0.000000 0.000000 78.281978 -4.964983 25.424427 -12.938040 19.659297 -2.980313 0.948735 0.495915 7.802606 7.125000 0.000000 0.000000 
0.963969 17.749350 -31.897863 0.802328 -1.524082 4.916085 -21.426882 -9.638381 -12.621812 1.588216 9.169776 28.332369 0.008076 2.059981 -5.713623 0.004700 0.443000 1.217200 25.967090 10.579194 -11.322113 -2.608382 -9.481722 29.766329 0.721758 -6.134280 -10.160655 -0.180000 -2.732600 7.535100 2.603843 -4.479393 -2.911834 9.006284 -1.439441 -4.350907 4.355028 0.941669 15.475686 4.282800 -0.507200 7.424000 -90.038781 5.182861 17.885042 9.769336 -18.216524 -1.777960 -0.885301 -3.156178 14.157449 -7.125000 0.000000 0.000000 77.387416 -5.449426 26.805653 -12.766748 19.467991 -2.916813 0.989625 0.342374 8.437271 7.125000 0.000000 0.000000 
0.963664 17.751281 -31.895627 0.833291 -1.521872 4.958123 -21.458073 -9.611225 -12.659481 1.576606 9.153038 28.275917 0.001951 2.091407 -5.748330 0.006200 0.507300 1.394000 25.928025 10.559468 -11.410929 -2.616082 -9.498800 29.813344 0.712767 -6.113960 -10.232393 -0.189400 -2.802900 7.730600 2.593461 -4.458680 -2.911263 8.964462 -1.431371 -4.343908 4.286258 0.929327 15.538821 4.237700 -0.514700 7.457900 -90.014360 5.114969 17.930582 9.773410 -18.219890 -1.776569 -0.882239 -3.167335 14.126436 -7.125000 0.000000 0.000000 77.396925 -5.463870 26.746632 -12.708513 19.419808 -2.894440 1.054179 -0.004623 8.764717 7.125000 0.000000 0.000000 
0.960819 17.751484 -31.891563 0.981386 -1.493090 4.967255 -21.596815 -9.440967 -12.689747 1.568684 9.136994 28.233168 0.067118 1.813385 -5.685940 0.014500 0.776700 2.134600 25.753470 10.371082 -11.498207 -2.627987 -9.521717 29.880547 0.666296 -5.933635 -10.324062 -0.169400 -2.651800 7.310900 2.520970 -4.338598 -2.886323 8.788684 -1.382422 -4.301686 4.209228 0.763897 15.555334 4.156500 -0.580900 7.497400 -89.846074 5.013554 18.206930 9.768990 -18.217270 -1.777463 -0.882772 -3.160491 14.237729 -7.125000 0.000000 0.000000 77.562791 -5.612059 26.672705 -12.857614 19.700736 -2.965269 1.123676 -0.414193 8.351522 7.125000 0.000000 0.000000 
0.956755 17.748944 -31.886279 1.190089 -1.465121 4.958918 -21.809338 -9.285234 -12.680325 1.556568 9.111640 28.165012 0.099791 1.657297 -5.577737 0.016700 0.835100 2.295100 25.516251 10.153608 -11.614451 -2.646715 -9.555368 29.981347 0.624981 -5.766537 -10.375313 -0.151200 -2.505600 6.905200 2.522037 -4.375166 -2.885637 8.921633 -1.392864 -4.279603 4.197876 0.757739 15.469614 4.158300 -0.584200 7.445900 -89.928277 5.100364 18.208666 9.811179 -18.301341 -1.802006 -0.861715 -3.158168 14.257647 -7.125000 0.000000 0.000000 77.470812 -5.750690 26.958410 -13.069671 20.050073 -3.070497 1.132909 -0.480136 7.598088 7.125000 0.000000 0.000000 
0.950963 17.742745 -31.886584 1.326888 -1.249669 4.897496 -21.921305 -9.235547 -12.617441 1.546275 9.089727 28.107724 0.146490 1.454250 -5.530645 0.011300 0.687100 1.888200 25.391032 9.959374 -11.675193 -2.668248 -9.589813 30.092862 0.620167 -5.775129 -10.487070 -0.161200 -2.586600 7.129800 2.556385 -4.540452 -2.884976 9.141687 -1.467281 -4.283525 4.177991 0.798212 15.585497 4.187600 -0.589100 7.497200 -90.058710 5.097928 18.143527 9.832467 -18.335555 -1.808680 -0.860437 -3.169348 14.170591 -7.125000 0.000000 0.000000 77.324040 -5.723625 26.893636 -12.914910 19.820310 -2.988889 1.168677 -0.582997 8.326188 7.125000 0.000000 0.000000 
0.946594 17.738275 -31.885771 1.354548 -1.131428 4.795727 -21.951035 -9.241540 -12.501035 1.537475 9.070857 28.057903 0.152098 1.426843 -5.514961 0.006400 0.517800 1.422700 25.379799 9.795488 -11.639476 -2.690938 -9.624886 30.212769 0.593753 -5.701185 -10.648138 -0.143900 -2.444600 6.736000 2.459675 -4.348397 -2.808581 8.848903 -1.402128 -4.201726 4.208410 0.488776 15.732775 4.168400 -0.729900 7.666400 -89.750988 4.764528 18.750398 9.781702 -18.238513 -1.788112 -0.885274 -3.147809 14.138043 -7.125000 0.000000 0.000000 77.638172 -5.530283 26.292318 -12.855176 19.695175 -2.944936 1.205011 -0.602991 8.701934 7.125000 0.000000 0.000000 
0.943038 17.736141 -31.884552 1.349945 -1.125878 4.760209 -21.943126 -9.298266 -12.464686 1.533886 9.063870 28.038522 0.142996 1.465137 -5.524476 0.008300 0.589500 1.619900 25.392022 9.808463 -11.630239 -2.707787 -9.650388 30.301118 0.582056 -5.677835 -10.752959 -0.124400 -2.273400 6.261800 2.405984 -4.126218 -2.854763 8.731738 -1.274311 -4.549038 4.255949 0.344277 15.882248 4.154800 -0.792900 7.823700 -89.592821 4.902538 19.212884 9.787816 -18.248609 -1.796984 -0.919087 -3.115098 14.157834 -7.125000 0.000000 0.000000 77.785088 -5.762175 25.906597 -12.900893 19.758249 -2.965920 1.186959 -0.665045 8.607023 7.125000 0.000000 0.000000 
0.938872 17.737055 -31.887803 1.429996 -1.038289 4.764300 -22.011023 -9.329105 -12.414401 1.535996 9.065907 28.049274 0.167375 1.378333 -5.608223 0.010300 0.656200 1.803400 25.308749 9.670120 -11.713657 -2.721072 -9.675069 30.374413 0.554758 -5.571855 -10.801509 -0.152800 -2.519000 6.942300 2.410268 -4.221686 -2.804173 8.760575 -1.338116 -4.313329 4.419104 0.563146 15.607809 4.255500 -0.668800 7.634100 -89.628813 4.955280 19.122764 9.894363 -18.455533 -1.847566 -0.909814 -3.121743 14.097766 -7.125000 0.000000 0.000000 77.686254 -5.703768 26.288469 -12.924077 19.816410 -2.983115 1.187600 -0.653748 8.236549 7.125000 0.000000 0.000000 
0.933791 17.735226 -31.887702 1.519590 -0.960716 4.751210 -22.061996 -9.207478 -12.420667 1.545293 9.077443 28.093236 0.235720 1.101228 -5.645568 0.015800 0.811800 2.231200 25.227758 9.458633 -11.796751 -2.729881 -9.688328 30.417952 0.532646 -5.474168 -10.798644 -0.172800 -2.677600 7.382300 2.482479 -4.424207 -2.827535 9.058282 -1.419459 -4.345814 4.368441 0.861746 15.386585 4.261200 -0.527100 7.451100 -89.856313 5.160166 18.853928 9.987417 -18.629263 -1.888271 -0.905560 -3.138026 14.034572 -7.125000 0.000000 0.000000 77.378605 -5.770196 26.822052 -12.912096 19.810610 -2.979836 1.199773 -0.624397 8.154903 7.125000 0.000000 0.000000 
0.926475 17.729739 -31.884958 1.536827 -0.885643 4.718776 -22.041680 -9.098224 -12.442908 1.556155 9.093347 28.146512 0.284692 0.904471 -5.676721 0.015200 0.796500 2.189100 25.241368 9.337076 -11.823433 -2.734748 -9.695096 30.441644 0.528789 -5.456253 -10.794564 -0.171100 -2.664900 7.347100 2.477926 -4.473643 -2.822549 9.045394 -1.442527 -4.361734 4.271988 0.880630 15.343395 4.209700 -0.518200 7.396600 -89.804697 5.270068 18.910952 10.028196 -18.717105 -1.915485 -0.904093 -3.119133 13.952098 -7.125000 0.000000 0.000000 77.393900 -5.746593 26.855924 -12.865242 19.760150 -2.965299 1.170105 -0.728409 8.224329 7.125000 0.000000 0.000000 
0.918042 17.729130 -31.883333 1.534476 -0.905757 4.662274 -21.995882 -9.077003 -12.444527 1.570378 9.115321 28.217065 0.270498 0.966377 -5.696429 0.009400 0.625700 1.719300 25.294704 9.263945 -11.804939 -2.737698 -9.691033 30.445626 0.517067 -5.351917 -10.602084 -0.210000 -2.950500 8.141000 2.673963 -4.952984 -2.933660 9.736002 -1.620472 -4.627608 4.161038 1.438798 15.422005 4.260000 -0.304300 7.283900 -90.373438 5.784241 17.883626 10.099902 -18.847027 -1.938617 -0.907769 -3.153111 13.921403 -7.125000 0.000000 0.000000 76.734543 -6.018030 28.239803 -12.875684 19.836787 -2.993201 1.123807 -0.812582 7.981904 7.125000 0.000000 0.000000 
0.910726 17.729435 -31.881808 1.520160 -0.979207 4.633245 -21.926134 -9.101800 -12.479810 1.588279 9.145239 28.309068 0.260454 1.020913 -5.766673 0.009500 0.629400 1.729500 25.354516 9.322057 -11.760160 -2.735310 -9.679503 30.429996 0.486210 -5.256158 -10.764449 -0.179600 -2.730000 7.528000 2.933601 -5.458577 -3.100605 10.687945 -1.776593 -5.060282 4.027257 2.083293 15.499852 4.310600 -0.058200 7.169900 -91.157560 6.427098 16.676646 10.139468 -18.914409 -1.951442 -0.923078 -3.164424 13.963494 -7.125000 0.000000 0.000000 75.810674 -6.393503 29.606706 -12.884533 19.836140 -3.001267 1.149187 -0.465721 7.870981 7.125000 0.000000 0.000000 
0.902699 17.727606 -31.879471 1.508100 -1.050316 4.678973 -21.896688 -9.080065 -12.556048 1.604954 9.176551 28.398547 0.259976 1.043079 -5.863718 0.007300 0.552200 1.517300 25.382761 9.378483 -11.778116 -2.730161 -9.674004 30.406758 0.490156 -5.280352 -10.788265 -0.169700 -2.654200 7.317400 2.846731 -5.134444 -3.078815 10.459320 -1.623244 -5.152486 4.029662 1.736674 15.493486 4.258100 -0.204800 7.257600 -90.818551 6.308643 17.475517 10.096013 -18.840945 -1.933839 -0.933977 -3.158097 13.848316 -7.125000 0.000000 0.000000 76.073735 -6.447012 28.989975 -12.936042 19.806903 -3.016041 1.035368 0.258633 7.711441 7.125000 0.000000 0.000000 
0.892843 17.725573 -31.878659 1.353983 -1.088304 4.687126 -21.663153 -9.016707 -12.677565 1.618204 9.204154 28.471351 0.287184 0.928070 -5.823578 0.012800 0.729100 2.003800 25.617064 9.528841 -11.723541 -2.727189 -9.666358 30.391729 0.520482 -5.419474 -10.808484 -0.168400 -2.643900 7.288800 2.890005 -5.142962 -3.103217 10.538248 -1.612951 -5.298347 3.984018 1.691942 15.458081 4.234500 -0.229100 7.243200 -90.851636 6.388105 17.343752 10.119588 -18.884355 -1.948957 -0.926669 -3.147387 13.933727 -7.125000 0.000000 0.000000 76.012101 -6.650106 29.257435 -13.063664 20.075384 -3.080869 1.145492 -0.331640 7.431255 7.125000 0.000000 0.000000 
0.880650 17.722932 -31.877642 1.261436 -0.954292 4.622335 -21.468863 -8.956820 -12.714243 1.628414 9.220616 28.521604 0.332537 0.728744 -5.754345 0.013100 0.737700 2.027500 25.821642 9.497101 -11.641420 -2.731399 -9.662858 30.405464 0.543683 -5.545352 -10.904070 -0.151500 -2.507700 6.911100 3.092130 -5.632395 -3.194223 11.230560 -1.795689 -5.519313 3.891958 2.084604 15.613293 4.292100 -0.100700 7.195800 -91.419229 6.858383 16.436411 10.271228 -19.152062 -2.011652 -0.896560 -3.192160 13.909648 -7.125000 0.000000 0.000000 75.348353 -6.872831 30.559440 -13.104915 20.183693 -3.103114 1.199221 -0.477315 7.134144 7.125000 0.000000 0.000000 
0.870184 17.722017 -31.875509 1.347212 -0.750742 4.568740 -21.525980 -8.932128 -12.682498 1.636634 9.228324 28.557180 0.376577 0.531902 -5.701429 0.015000 0.789700 2.170400 25.763109 9.328337 -11.599270 -2.732980 -9.660557 30.409073 0.527413 -5.506574 -11.030052 -0.150800 -2.502300 6.895900 3.045458 -5.771546 -3.234710 11.083501 -1.852982 -5.664770 3.945360 2.090495 15.756813 4.372100 -0.128600 7.137300 -91.303827 7.288234 16.433512 10.382801 -19.368245 -2.059572 -0.865732 -3.234426 13.817502 -7.125000 0.000000 0.000000 75.430323 -7.125395 30.634015 -13.035563 20.094422 -3.071119 1.211531 -0.492572 7.289953 7.125000 0.000000 0.000000 
0.861445 17.720188 -31.874086 1.429573 -0.772912 4.533852 -21.610622 -8.914852 -12.635138 1.637895 9.226339 28.559229 0.357858 0.608034 -5.702385 0.014500 0.777000 2.135300 25.689733 9.224713 -11.599213 -2.734670 -9.661988 30.414299 0.518073 -5.450900 -10.977635 -0.133200 -2.352100 6.479600 2.979186 -5.801560 -3.241464 10.861805 -1.873256 -5.706782 4.070185 2.195164 15.709848 4.466000 -0.082100 7.010500 -91.111232 7.496806 16.355507 10.399116 -19.413824 -2.065303 -0.853190 -3.252743 13.774036 -7.125000 0.000000 0.000000 75.576480 -7.159809 30.599998 -12.883675 19.878512 -3.001030 1.210858 -0.570293 7.466926 7.125000 0.000000 0.000000 
